<svg xmlns="http://www.w3.org/2000/svg" width="825" height="533" viewBox="0 0 825 533">
  <path fill="#235789" fill-rule="evenodd" d="M708.821787,57 L725,57 L725,17 C725,14.790861 726.790861,13 729,13 L821,13 C823.209139,13 825,14.790861 825,17 L825,107 C825,109.209139 823.209139,111 821,111 L729,111 C726.790861,111 725,109.209139 725,107 L725,69 L714.210312,69 C717.985725,79.0337469 720.290047,89.7880049 720.860428,100.999927 L721,101 L721,425 L720.989652,425 C720.996543,425.499178 721,425.999185 721,426.5 C721,485.318326 673.318326,533 614.5,533 C584.682578,533 557.727155,520.746325 538.394757,501 L243.224533,501 C218.11654,518.642771 187.5178,529 154.5,529 C69.1720062,529 0,459.827994 0,374.5 C0,289.172006 69.1720062,220 154.5,220 C190.525234,220 223.670657,232.329939 249.946451,253 L508,253 L508,101 L508.139569,101 C511.001783,44.7377446 557.526362,0 614.5,0 C655.448824,0 690.999906,23.1104846 708.821782,56.9999919 Z"/>
</svg>
