<svg xmlns="http://www.w3.org/2000/svg" width="82" height="98" viewBox="0 0 82 98">
  <defs>
    <linearGradient id="ufm_end-a" x1="20.185%" x2="76.408%" y1="37.182%" y2="37.182%">
      <stop offset="0%" stop-color="#5EBBDD"/>
      <stop offset="100%" stop-color="#11618F"/>
    </linearGradient>
    <linearGradient id="ufm_end-b" x1="20.185%" x2="76.408%" y1="37.182%" y2="37.182%">
      <stop offset="0%" stop-color="#98E1FB"/>
      <stop offset="100%" stop-color="#2D84B5"/>
    </linearGradient>
    <linearGradient id="ufm_end-c" x1="0%" y1="52.94%" y2="52.94%">
      <stop offset="0%" stop-color="#98E1FB"/>
      <stop offset="100%" stop-color="#2D83B5"/>
    </linearGradient>
  </defs>
  <g fill="none" fill-rule="evenodd">
    <g transform="matrix(1 0 0 -1 0 80)">
      <g transform="translate(16.793 39.487)">
        <path fill="url(#ufm_end-a)" d="M7.90243902,17.7692308 L35.5609756,17.7692308 L35.5609756,34.7794845 C33.1627529,36.6017085 28.5529968,37.5128205 21.7317073,37.5128205 C14.9104178,37.5128205 10.3006617,36.6017085 7.90243902,34.7794845 L7.90243902,17.7692308 Z"/>
        <path fill="url(#ufm_end-b)" d="M0,0 L45.4390244,0 L45.4390244,29.767944 C41.4990871,32.956836 33.9259163,34.5512821 22.7195122,34.5512821 C11.513108,34.5512821 3.93993731,32.956836 0,29.767944 L0,0 Z"/>
      </g>
      <polygon fill="#5FBFF6" points="0 8.282 42.262 0 81 8.282 39.628 17.769"/>
      <path fill="#5CB5E7" d="M2.48596326,53.2454195 L0.987804878,8.88461538 L38.5231794,18.2097928 L38.5231794,64.1666667 L3.97776483,55.1125691 C3.12242435,54.8883907 2.51580858,54.129146 2.48596326,53.2454195 Z"/>
      <path fill="#2B98D6" d="M38.5243902,17.4597876 L79.0243902,7.8974359 L79.0243902,49.983633 C79.0243902,51.3137509 78.1485529,52.4850619 76.8727231,52.8611895 L38.5243902,64.1666667"/>
    </g>
    <path fill="url(#ufm_end-c)" d="M0.0523484578,85.3608811 L-7.10542736e-15,85.3608811 L-7.10542736e-15,34.9644934 C-7.10542736e-15,33.3272489 18.1324676,32 40.5,32 C62.8675324,32 81,33.3272489 81,34.9644934 L81,85.3608811 L80.9693537,85.3608811 C80.9924871,85.5255014 81,85.6904194 81,85.8549633 C81,88.8565782 62.8675324,95 40.5,95 C18.1324676,95 -6.00806078e-15,89.0807945 -7.10542736e-15,85.8549633 C-7.10542736e-15,85.6874726 0.0164119741,85.5227229 0.0523484578,85.3608811 Z" transform="matrix(1 0 0 -1 0 127)"/>
    <ellipse cx="40.5" cy="90.5" fill="#235789" rx="35.5" ry="2.5" transform="matrix(1 0 0 -1 0 181)"/>
  </g>
</svg>
