<?xml version="1.0" encoding="UTF-8"?>
<svg width="251px" height="163px" viewBox="0 0 251 163" version="1.1" xmlns="http://www.w3.org/2000/svg" xmlns:xlink="http://www.w3.org/1999/xlink">
    <!-- Generator: Sketch 53.2 (72643) - https://sketchapp.com -->
    <title>STORM-sensor</title>
    <desc>Created with Sketch.</desc>
    <defs>
        <linearGradient x1="13.3541628%" y1="43.7650301%" x2="88.8656715%" y2="42.3906243%" id="linearGradient-1">
            <stop stop-color="#0086DC" offset="0%"></stop>
            <stop stop-color="#7FC7F0" offset="49.3339053%"></stop>
            <stop stop-color="#008EDE" offset="100%"></stop>
        </linearGradient>
        <linearGradient x1="12.1013186%" y1="37.3293264%" x2="87.0965818%" y2="37.3293264%" id="linearGradient-2">
            <stop stop-color="#0086BE" offset="0%"></stop>
            <stop stop-color="#50B2DB" offset="28.2356395%"></stop>
            <stop stop-color="#7CCDF7" offset="68.578396%"></stop>
            <stop stop-color="#006DAC" offset="100%"></stop>
        </linearGradient>
    </defs>
    <g id="Interactive" stroke="none" stroke-width="1" fill="none" fill-rule="evenodd">
        <g id="elements-2" transform="translate(-660.000000, -67.000000)">
            <g id="STORM-sensor" transform="translate(785.500000, 148.500000) rotate(-360.000000) translate(-785.500000, -148.500000) translate(660.000000, 67.000000)">
                <path d="M34,81.5 C35.6902604,68.5 43.9761681,57.7380952 58.8577232,49.2142857 C77.5691433,38.4968183 97.2486521,32.2889266 126.239056,32.2889266 C149.607586,32.2889266 167.315153,35.9437352 182.252796,44.0234938 C189.113388,47.7343827 202.943719,55.0238861 210.920382,65 C213.743226,68.5304243 215.914141,74.5601078 217.433127,83.0890504 L242.254358,53.3206024 C226.114524,43.2999906 210.933615,33.2645517 196.71163,23.2142857 C182.489644,13.1640197 158.998787,7.07857021 126.239056,4.95793726 C93.8102318,8.10362497 72.311638,13.044949 61.7432749,19.7819094 C28.2871758,41.1089978 21,43.9268968 21,46.60743 C21,50.5580837 25.3333333,62.1889403 34,81.5 Z" id="Path-8" fill="url(#linearGradient-1)"></path>
                <path d="M0.943478995,71 L4.29266044,109.711638 C23.4884178,144.664902 64.2988308,162.141534 126.723899,162.141534 C189.148968,162.141534 229.663768,142.413478 248.268301,102.957366 L250.216091,74 C224.21501,93.7222301 203.840805,107.483729 189.093474,115.284498 C174.346144,123.085266 164.3635,125.381368 159.145544,122.172803 C141.57179,127.019882 128.156453,129.295614 118.899536,129 C108.137019,128.656305 92.7072874,125.863115 81.71385,123.131757 C68.2760774,119.793096 35.7088476,99.2596604 29.8776285,81 C25.9901491,68.8268931 16.3454326,65.4935597 0.943478995,71 Z" id="Path-9" fill="url(#linearGradient-2)"></path>
                <g id="SENSOR" transform="translate(62.000000, 34.000000)">
                    <polygon id="Path-15" fill="#C0D5DB" points="5.11539662 1.44093718 122.057209 0.315775936 126.711756 64.3255814 0.400245333 66"></polygon>
                    <polygon id="Path-16" fill="#427D8E" points="0.400245333 66 126.711756 64.3255814 126.018143 68.3807144 1.27519387 69.3533829"></polygon>
                    <polygon id="Path-17" stroke="#063377" fill="#FFFFFF" points="9.97795472 6.72225688 116.083327 6.72225688 119.949944 56.396233 6.44432314 57.3495486"></polygon>
                    <polygon id="Inner" fill="#0666C2" points="12.3622318 9 113.320934 9 117 54.1338167 9 55"></polygon>
                </g>
                <path d="M125.5,148 C56.7405486,148 1,114.869071 1,74 C1,33.1309285 56.7405486,-1.42108547e-14 125.5,-1.42108547e-14 C194.259451,-1.42108547e-14 250,33.1309285 250,74 C250,114.869071 194.259451,148 125.5,148 Z M125.5,125 C177.138624,125 219,100.599519 219,70.5 C219,40.4004811 177.138624,16 125.5,16 C73.8613759,16 32,40.4004811 32,70.5 C32,100.599519 73.8613759,125 125.5,125 Z" id="Combined-Shape" fill="#5FBFF6"></path>
            </g>
        </g>
    </g>
</svg>