<svg xmlns="http://www.w3.org/2000/svg" width="207" height="117" viewBox="0 0 207 117">
  <defs>
    <linearGradient id="sensor-a" x1="13.354%" x2="88.866%" y1="43.705%" y2="42.317%">
      <stop offset="0%" stop-color="#0086DC"/>
      <stop offset="49.334%" stop-color="#7FC7F0"/>
      <stop offset="100%" stop-color="#008EDE"/>
    </linearGradient>
    <linearGradient id="sensor-b" x1="12.101%" x2="87.097%" y1="37.329%" y2="37.329%">
      <stop offset="0%" stop-color="#0086BE"/>
      <stop offset="28.236%" stop-color="#50B2DB"/>
      <stop offset="68.578%" stop-color="#7CCDF7"/>
      <stop offset="100%" stop-color="#006DAC"/>
    </linearGradient>
    <linearGradient id="sensor-c" x1="26.493%" x2="50%" y1="7.947%" y2="63.791%">
      <stop offset="0%" stop-color="#7fb6d6"/>
      <stop offset="100%" stop-color="#FFF"/>
    </linearGradient>
  </defs>
  <g fill="none" fill-rule="evenodd">
    <path fill="url(#sensor-a)" d="M65.108166,56.3033361 C74.4909581,44.9995422 87.9127993,40.0190726 105.37369,41.3619274 C122.83458,42.7047822 135.117107,47.6852518 142.221269,56.3033361 L152.68293,47.2739269 C147.091183,41.460438 141.298166,37.0294628 135.30388,33.9810014 C129.309593,30.93254 119.332863,27.3436348 105.37369,23.2142857 C91.3388866,26.7453558 82.0943065,29.5326232 77.6399494,31.5760879 C63.5388619,38.0450516 59.4285714,44.4246144 59.4285714,45.2376777 C59.4285714,46.4359957 61.3217696,50.1245485 65.108166,56.3033361 Z"/>
    <path fill="url(#sensor-b)" d="M4.26325641e-14,49.2142857 L2.71648893,77.094282 C18.5532456,103.599906 52.2223824,116.852717 103.723899,116.852717 C155.225416,116.852717 189.105192,103.154838 205.363228,75.7590798 L207.009524,52 L116.652679,71.8212369 C111.167633,72.9003514 98.4275987,71.5024198 78.4325748,67.6274421 C58.437551,63.7524644 32.2933594,57.6147456 4.26325641e-14,49.2142857 Z"/>
    <path fill="#5FBFF6" d="M103.504762,104 C46.3406604,104 0,80.718807 0,52 C0,23.281193 46.3406604,0 103.504762,0 C160.668863,0 207.009524,23.281193 207.009524,52 C207.009524,80.718807 160.668863,104 103.504762,104 Z M103.009524,68.7142857 C125.437545,68.7142857 143.619048,59.5681027 143.619048,48.2857143 C143.619048,37.0033258 125.437545,27.8571429 103.009524,27.8571429 C80.5815031,27.8571429 62.4,37.0033258 62.4,48.2857143 C62.4,59.5681027 80.5815031,68.7142857 103.009524,68.7142857 Z"/>
    <polygon fill="url(#sensor-c)" stroke="#979797" points="79 58.684 88.25 34 118 34 126 58.684"/>
    <polygon fill="#1F9CE3" stroke="#239EE3" points="79 59 79 61.63 126 61.63 126 59"/>
  </g>
</svg>
