<svg xmlns="http://www.w3.org/2000/svg" width="130" height="130" viewBox="0 0 130 130">
  <g fill="none" fill-rule="evenodd">
    <path fill="#5CB5E7" d="M35,35 L35,30 C35,13.4314575 48.4314575,-1.01453063e-15 65,-7.88860905e-31 C81.5685425,1.01453063e-15 95,13.4314575 95,30 L95,35 L100,35 C116.568542,35 130,48.4314575 130,65 C130,81.5685425 116.568542,95 100,95 L95,95 L95,100 C95,116.568542 81.5685425,130 65,130 C48.4314575,130 35,116.568542 35,100 L35,95 L30,95 C13.4314575,95 2.02906125e-15,81.5685425 0,65 C-2.02906125e-15,48.4314575 13.4314575,35 30,35 L35,35 Z"/>
    <path fill="#4998CF" d="M45,45 L45,30 C45,18.954305 53.954305,10 65,10 C76.045695,10 85,18.954305 85,30 L85,45 L100,45 C111.045695,45 120,53.954305 120,65 C120,76.045695 111.045695,85 100,85 L85,85 L85,100 C85,111.045695 76.045695,120 65,120 C53.954305,120 45,111.045695 45,100 L45,85 L30,85 C18.954305,85 10,76.045695 10,65 C10,53.954305 18.954305,45 30,45 L45,45 Z" opacity=".531"/>
    <g transform="translate(13 48)">
      <path fill="#5CB5E7" d="M17,34 C20.1313463,34 26.6789392,34 36.6427788,34 L36.6427788,1.0658141e-14 C26.6543187,1.0658141e-14 20.1067257,1.0658141e-14 17,1.0658141e-14 C7.61115925,1.0658141e-14 -2.48689958e-14,7.61115925 -2.48689958e-14,17 C-2.48689958e-14,26.3888407 7.61115925,34 17,34 Z"/>
      <polygon fill="#FFF" points="31.534 11 31.534 23 18.194 23 18.194 30.165 5 16.99 18.194 4 18.194 11"/>
    </g>
    <g transform="rotate(-90 82 34)">
      <path fill="#5CB5E7" d="M17,34 C20.1313463,34 26.6789392,34 36.6427788,34 L36.6427788,1.0658141e-14 C26.6543187,1.0658141e-14 20.1067257,1.0658141e-14 17,1.0658141e-14 C7.61115925,1.0658141e-14 -2.48689958e-14,7.61115925 -2.48689958e-14,17 C-2.48689958e-14,26.3888407 7.61115925,34 17,34 Z"/>
      <polygon fill="#FFF" points="31.534 11 31.534 23 18.194 23 18.194 30.165 5 16.99 18.194 4 18.194 11"/>
    </g>
    <g transform="rotate(90 34.5 47.5)">
      <path fill="#5CB5E7" d="M17,34 C20.1313463,34 26.6789392,34 36.6427788,34 L36.6427788,1.0658141e-14 C26.6543187,1.0658141e-14 20.1067257,1.0658141e-14 17,1.0658141e-14 C7.61115925,1.0658141e-14 -2.48689958e-14,7.61115925 -2.48689958e-14,17 C-2.48689958e-14,26.3888407 7.61115925,34 17,34 Z"/>
      <polygon fill="#FFF" points="31.534 11 31.534 23 18.194 23 18.194 30.165 5 16.99 18.194 4 18.194 11"/>
    </g>
    <g transform="rotate(-180 58.5 41)">
      <path fill="#5CB5E7" d="M17,34 C20.1313463,34 26.6789392,34 36.6427788,34 L36.6427788,1.0658141e-14 C26.6543187,1.0658141e-14 20.1067257,1.0658141e-14 17,1.0658141e-14 C7.61115925,1.0658141e-14 -2.48689958e-14,7.61115925 -2.48689958e-14,17 C-2.48689958e-14,26.3888407 7.61115925,34 17,34 Z"/>
      <polygon fill="#FFF" points="31.534 11 31.534 23 18.194 23 18.194 30.165 5 16.99 18.194 4 18.194 11"/>
    </g>
  </g>
</svg>
