<svg xmlns="http://www.w3.org/2000/svg" width="36" height="53" viewBox="0 0 36 53">
  <defs>
    <linearGradient id="ring-2-a" x1="13.354%" x2="88.866%" y1="43.17%" y2="41.665%">
      <stop offset="0%" stop-color="#0086DC"/>
      <stop offset="49.334%" stop-color="#7FC7F0"/>
      <stop offset="100%" stop-color="#008EDE"/>
    </linearGradient>
    <linearGradient id="ring-2-b" x1="12.101%" x2="87.097%" y1="37.329%" y2="37.329%">
      <stop offset="0%" stop-color="#0086BE"/>
      <stop offset="28.236%" stop-color="#50B2DB"/>
      <stop offset="68.578%" stop-color="#7CCDF7"/>
      <stop offset="100%" stop-color="#006DAC"/>
    </linearGradient>
  </defs>
  <g fill="none" fill-rule="evenodd" transform="rotate(-90 26.734 25.944)">
    <path fill="url(#ring-2-a)" d="M8.17791411,17.5446999 C9.48179743,15.4807842 11.0488145,13.91973 12.8789653,12.8615372 C16.7897482,10.6003234 20.6308359,9.29579751 26.6779141,9.29579751 C31.5523314,9.29579751 34.3822461,10.4384738 37.4980734,12.1445583 C38.9291172,12.9281324 40.4783466,15.4381898 42.1421906,17.5446999 C42.7310046,18.290168 43.8016574,18.290168 45.3541493,17.5446999 L50.5315839,11.258932 C47.1649928,9.14302591 43.9984227,7.02398901 41.0318736,4.90182129 C38.0653246,2.77965356 33.1653911,1.49467817 26.3320731,1.04689512 C19.5677784,1.711124 15.0834092,2.75451114 12.8789653,4.17705656 C5.90039249,8.68038599 4.3803681,9.27540051 4.3803681,9.84140953 C4.3803681,10.6756113 5.64621677,13.2433747 8.17791411,17.5446999 Z"/>
    <path fill="url(#ring-2-b)" d="M0.1967993,14.9920319 L0.895401565,23.1662023 C4.89942458,30.5467722 13.4120261,34.2370571 26.433206,34.2370571 C39.4543859,34.2370571 47.9053259,30.0713719 51.786026,21.7400015 L52.1923135,15.625498 C46.7687752,19.789953 42.5189409,22.6957675 39.4428106,24.3429417 C36.3666803,25.9901159 34.2844111,26.4749502 33.196003,25.7974445 C29.5303119,26.8209313 26.732021,27.3014644 24.8011301,27.2390438 C22.5561881,27.1664709 19.3377164,26.5766736 17.0446068,25.9999328 C14.2416358,25.2949565 7.44847127,20.9592112 6.23214336,17.1035857 C5.42125809,14.5331687 3.40947674,13.8293174 0.1967993,14.9920319 Z"/>
    <path fill="#5FBFF6" d="M26.1779141,31.250996 C11.8354519,31.250996 0.208588957,24.2552223 0.208588957,15.625498 C0.208588957,6.99577375 11.8354519,-2.01794137e-12 26.1779141,-2.01794137e-12 C40.5203764,-2.01794137e-12 52.1472393,6.99577375 52.1472393,15.625498 C52.1472393,24.2552223 40.5203764,31.250996 26.1779141,31.250996 Z M25.7849329,21.9531081 C32.070711,21.9531081 39.7849329,19.3943963 39.7849329,14.1498539 C39.7849329,8.90531149 34.8502687,5.95310811 26.1428421,5.95310811 C17.4354154,5.95310811 11.7849329,8.90531149 11.7849329,14.1498539 C11.7849329,19.3943963 19.4991547,21.9531081 25.7849329,21.9531081 Z"/>
  </g>
</svg>
