<svg xmlns="http://www.w3.org/2000/svg" width="79" height="173" viewBox="0 0 79 173">
  <g fill="none" fill-rule="evenodd" transform="rotate(-90 86.5 86.5)">
    <path fill="#C0E8FF" d="M34.2351015,0 L171.325308,0 L173,13.724731 L36.097475,13.724731 L24.4623172,79 L5.68434189e-14,79 L25.8324487,0 L34.2351015,0 Z"/>
    <path stroke="#4A90E2" stroke-linecap="round" d="M29.8333333 30L23.1666667 30M26.3125 48.5L17.0756859 48.5M97.5 12L97.5 7M118.5 12L118.5 7"/>
    <polygon fill="#C0E8FF" points="5.406 35.971 52.821 44.292 52.821 47.625 5.406 38.05" transform="rotate(90 29.113 41.798)"/>
    <polygon fill="#C0E8FF" points="-3.879 33.256 43.536 47.007 43.536 50.34 -3.879 38.46" transform="rotate(90 19.828 41.798)"/>
  </g>
</svg>
