<svg xmlns="http://www.w3.org/2000/svg" width="171" height="114" viewBox="0 0 171 114">
  <defs>
    <linearGradient id="xrp_emitter-a" x1="20.185%" x2="76.408%" y1="37.182%" y2="37.182%">
      <stop offset="0%" stop-color="#2D84B5"/>
      <stop offset="100%" stop-color="#98E1FB"/>
    </linearGradient>
    <linearGradient id="xrp_emitter-b" x1="20.185%" x2="76.408%" y1="37.182%" y2="37.182%">
      <stop offset="0%" stop-color="#98E1FB"/>
      <stop offset="100%" stop-color="#2D84B5"/>
    </linearGradient>
    <radialGradient id="xrp_emitter-c" cx="80.266%" cy="12.78%" r="80.138%" fx="80.266%" fy="12.78%">
      <stop offset="0%" stop-color="#89D6F5"/>
      <stop offset="100%" stop-color="#2B98D6"/>
    </radialGradient>
    <linearGradient id="xrp_emitter-d" x1="0%" x2="100%" y1="52.94%" y2="52.94%">
      <stop offset="0%" stop-color="#2D83B5"/>
      <stop offset="100%" stop-color="#98E1FB"/>
    </linearGradient>
  </defs>
  <g fill="none" fill-rule="evenodd" transform="rotate(-90 57 57)">
    <path fill="url(#xrp_emitter-a)" d="M0.146341463,-4.48041512e-17 L47.1463415,-4.48041512e-17 L47.1463415,41.3547987 C43.0710547,45.7849329 35.2377214,48 23.6463415,48 C12.0549615,48 4.22162821,45.7849329 0.146341463,41.3547987 L0.146341463,-4.48041512e-17 Z" transform="translate(33 123)"/>
    <polygon fill="#5FBFF6" points="0 55.652 58.958 44 113 55.652 55.284 69"/>
    <polygon fill="#2B98D6" points="4.033 119.863 1.878 56 56.878 68.989 53.5 131.734"/>
    <polyline fill="#5CB5E7" points="53.5 68.255 110.5 55 110.5 118.733 53.5 133"/>
    <polygon fill="#1F77A9" points="4.033 119.863 20.939 147.107 54.735 156 53.5 131.734"/>
    <polygon fill="#4094C3" points="53.5 131.734 110.5 118.733 93.146 143.807 54.735 156"/>
    <path fill="url(#xrp_emitter-b)" d="M41.304878,14 L73.304878,14 L73.304878,52.7701238 C70.5302147,56.9233746 65.1968814,59 57.304878,59 C49.4128747,59 44.0795414,56.9233746 41.304878,52.7701238 L41.304878,14 Z"/>
    <circle cx="57.463" cy="36.5" r="36.5" fill="url(#xrp_emitter-c)"/>
    <path fill="#000" d="M2.20601965,93 C11.6467021,100.90209 19.2405241,105.969262 24.9874854,108.201515 C30.7344468,110.433767 40.3040379,112.033263 53.6962587,113 C71.0393187,110.590323 82.7462715,108.366544 88.8171169,106.328662 C94.8879624,104.29078 101.35093,100.415218 108.20602,94.7019769 L2.20601965,93 Z" opacity=".151"/>
    <path fill="url(#xrp_emitter-d)" d="M-5.68434189e-14,95 L-5.68434189e-14,16 L0.316185966,16 C0.316185966,13.790861 25.6120976,12 56.816186,12 C88.0202743,12 113.316186,13.790861 113.316186,16 C113.316186,16.1437971 113.209008,16.2858219 113,16.4256959 L113,95 C113,99.9705627 87.7040884,104 56.5,104 C25.2959116,104 5.68434189e-14,99.9705627 5.68434189e-14,95 Z"/>
  </g>
</svg>
