<svg xmlns="http://www.w3.org/2000/svg" width="82" height="162" viewBox="0 0 82 162">
  <defs>
    <linearGradient id="emitter-a" x1="20.185%" x2="76.408%" y1="37.182%" y2="37.182%">
      <stop offset="0%" stop-color="#5EBBDD"/>
      <stop offset="100%" stop-color="#11618F"/>
    </linearGradient>
    <linearGradient id="emitter-b" x1="20.185%" x2="76.408%" y1="37.182%" y2="37.182%">
      <stop offset="0%" stop-color="#98E1FB"/>
      <stop offset="100%" stop-color="#2D84B5"/>
    </linearGradient>
    <linearGradient id="emitter-c" x1="20.185%" x2="76.408%" y1="37.182%" y2="37.182%">
      <stop offset="0%" stop-color="#98E1FB"/>
      <stop offset="100%" stop-color="#2D84B5"/>
    </linearGradient>
    <radialGradient id="emitter-d" cx="43.324%" cy="32.214%" r="90.847%" fx="43.324%" fy="32.214%">
      <stop offset="0%" stop-color="#89D6F5"/>
      <stop offset="100%" stop-color="#2B98D6"/>
    </radialGradient>
    <linearGradient id="emitter-e" x1="0%" y1="52.94%" y2="52.94%">
      <stop offset="0%" stop-color="#98E1FB"/>
      <stop offset="100%" stop-color="#2D83B5"/>
    </linearGradient>
  </defs>
  <g fill="none" fill-rule="evenodd">
    <g transform="translate(24 124)">
      <path fill="url(#emitter-a)" d="M6,18 L27,18 L27,35.2311661 C25.1791272,37.0770554 21.6791272,38 16.5,38 C11.3208728,38 7.8208728,37.0770554 6,35.2311661 L6,18 Z"/>
      <path fill="url(#emitter-b)" d="M-9.09494702e-13,0 L34,0 L34,30.1545407 C31.0519202,33.3848469 25.3852536,35 17,35 C8.61474644,35 2.94807977,33.3848469 -9.09494702e-13,30.1545407 L-9.09494702e-13,0 Z"/>
    </g>
    <polygon fill="#5FBFF6" points="0 74.389 42.784 66 82 74.389 40.117 84"/>
    <polygon fill="#5CB5E7" points="2.568 121.446 1 75 41 84.446 41 131"/>
    <polyline fill="#2B98D6" points="39 83.687 80 74 80 120.574 39 131"/>
    <polygon fill="#4094C3" points="2.669 121.471 15.393 141.446 40 148 39 130.486"/>
    <polygon fill="#1F77A9" points="39 130.486 79.99 120.552 67.953 139.193 39.892 148"/>
    <path fill="url(#emitter-c)" d="M30,44 L53,44 L53,72.4314241 C51.0057107,75.4771414 47.1723774,77 41.5,77 C35.8276226,77 31.9942893,75.4771414 30,72.4314241 L30,44 Z"/>
    <circle cx="41.5" cy="26.5" r="26.5" fill="url(#emitter-d)"/>
    <path fill="#000" d="M1.80917802,102.165241 C8.64662375,108.007482 14.1464746,111.753786 18.3087305,113.404154 C22.4709864,115.054523 29.4017946,116.237075 39.1011551,116.951812 C51.6619241,115.170269 60.1407236,113.526165 64.5375537,112.019501 C68.9343837,110.512836 73.6152095,107.647523 78.580031,103.423561 L1.80917802,102.165241 Z" opacity=".151"/>
    <path fill="url(#emitter-e)" d="M0.0558120426,101 L-3.55271368e-15,101 L-3.55271368e-15,14 L0.00890927451,14 C0.00593249007,13.9959026 0.00296060424,13.991803 2.48689958e-14,13.9877014 C2.48689958e-14,13.9346329 2.48689958e-14,13.7720658 2.48689958e-14,13.5 C2.48689958e-14,11.0147186 18.3563253,9 41,9 C63.6436747,9 82,11.0147186 82,13.5 C82,13.6118318 82,13.7568085 82,13.93493 C81.9996493,13.9566785 81.9989052,13.9783685 81.9977675,14 L82,101 L81.944188,101 C81.9812428,101.165581 82,101.332283 82,101.5 C82,106.746705 63.6436747,111 41,111 C18.3563253,111 -3.55271368e-15,106.746705 -3.55271368e-15,101.5 C-3.55271368e-15,101.332283 0.0187571986,101.165581 0.0558120426,101 Z"/>
  </g>
</svg>
