<svg xmlns="http://www.w3.org/2000/svg" width="42" height="64" viewBox="0 0 42 64">
  <defs>
    <linearGradient id="protein-7-a" x1="50%" x2="50%" y1="0%" y2="100%">
      <stop offset="0%" stop-color="#B4EC51"/>
      <stop offset="100%" stop-color="#429321"/>
    </linearGradient>
  </defs>
  <path fill="url(#protein-7-a)" fill-rule="evenodd" stroke="#417505" stroke-width="2" d="M760.069,39.0681314 C760.069,35.229876 767.510185,33.4880148 767.812321,29.4318623 C768.264273,23.3644324 768.264273,19.7187004 772.469847,21.4175936 C775.422388,22.6103088 772.911473,28.534212 774.892243,31.0734306 C777.054942,33.8458687 784.20565,34.8198858 786.937528,39.4041806 C792.171476,48.187136 792.53381,47.0744003 786.937528,57.2145655 C785.943278,59.0160936 783.576328,66.4408413 782.906913,67.7809771 C781.692847,70.2114797 775.534895,71.9303802 774.892243,73.624986 C773.894749,76.2552743 775.786434,80.1349264 772.469847,81.9063148 C765.838322,85.4482113 768.260718,79.6135095 767.812321,75.4124047 C767.363923,71.2112998 745.736863,72.3547571 752.207129,64.9331102 C758.677395,57.5114634 755.410102,60.9062832 754.018497,53.7528507 C752.626892,46.5994182 760.069,49.8182164 760.069,39.0681314 Z" transform="translate(-750 -20)"/>
</svg>
