<svg xmlns="http://www.w3.org/2000/svg" width="40" height="63" viewBox="0 0 40 63">
  <defs>
    <linearGradient id="protein-6-a" x1="50%" x2="50%" y1="0%" y2="100%">
      <stop offset="0%" stop-color="#B4EC51"/>
      <stop offset="100%" stop-color="#429321"/>
    </linearGradient>
  </defs>
  <path fill="url(#protein-6-a)" fill-rule="evenodd" stroke="#417505" stroke-width="2" d="M657.612225,39.325797 C657.612225,36.6236574 658.8824,35.7565138 661.204203,34.520914 C662.15248,34.0162667 665.399609,32.2318547 665.486337,31.0655869 C665.93371,25.0495325 668.871291,24.0475159 673.03426,25.7320239 C675.95689,26.9146399 673.151255,28.5478689 675.11196,31.0655869 C677.252748,33.8145496 684.331014,34.7803193 687.035216,39.325797 C692.21614,48.0343834 698.355868,59.3722098 692.81628,69.426514 C691.832102,71.2127878 693.478913,69.5840472 692.81628,70.9128355 C691.428097,73.6965804 692.030874,80.033133 690.467523,83.0201414 C688.576759,86.6327217 684.422225,86.5478537 681.47743,84.941134 C676.406703,82.1744774 673.355776,86.3842315 670.029398,81.468048 C669.180051,80.2127652 671.513303,74.9709217 670.029398,72.8514949 C662.733932,62.4315547 670.164378,72.7770259 665.486337,64.8812 C660.808296,56.985374 658.989732,60.1275769 657.612225,53.0347155 C656.234718,45.9418541 657.612225,49.9848566 657.612225,39.325797 Z" transform="translate(-656 -24)"/>
</svg>
