<svg xmlns="http://www.w3.org/2000/svg" width="57" height="105" viewBox="0 0 57 105">
  <defs>
    <linearGradient id="protein-3-a" x1="50%" x2="50%" y1="0%" y2="100%">
      <stop offset="0%" stop-color="#B4EC51"/>
      <stop offset="100%" stop-color="#429321"/>
    </linearGradient>
  </defs>
  <path fill="url(#protein-3-a)" fill-rule="evenodd" stroke="#417505" stroke-width="2" d="M300.518102,39.7045223 C300.518102,37.7839927 300.771385,34.8297916 302.648501,33.4064198 C304.52109,31.9864804 308.017343,32.0975048 308.166377,30.0728414 C308.332885,27.810779 308.655825,19.5454585 302.648501,19.5454585 C301.630483,19.5454585 296.392887,21.6186382 294.221127,19.5454585 C291.848057,17.2801076 292.581169,10.8417066 292.752731,10.5935403 C292.860525,10.4376152 298.455773,4.2782621 302.648501,3.9919985 C305.422325,3.80261229 316.187226,1.20673562 317.245656,2.24372814 C318.462564,3.4359902 333.429951,-0.628123323 329.246789,15.5925008 C329.082831,16.228264 325.959029,24.2090279 323.368097,22.0623886 C320.777165,19.9157493 319.871079,18.7428864 317.245656,19.5454585 C314.248473,20.4616747 312.883963,21.7970406 312.766734,22.0623886 C309.624162,29.1756185 313.202939,29.1756185 315.159397,31.7136281 C317.295549,34.4847461 324.358486,35.4582994 327.056831,40.0404115 C332.226535,48.8191849 338.352966,60.2483886 332.825375,70.3837256 C331.843329,72.1843959 329.907986,72.2518975 329.246789,73.5913953 C328.447299,75.2110526 326.376666,77.9264647 327.056831,80.230595 C327.48887,81.6941708 328.419981,81.0409891 329.246789,82.5223086 C332.101075,87.6360873 344.339196,82.5223086 340.126244,96.2725901 C338.192344,102.584473 317.291258,107.498911 310.502183,103.62857 C309.836627,103.249148 299.197974,100.601727 294.221127,100.223788 C288.478426,99.7876903 286.010229,94.2317825 286.000028,93.216972 C285.977581,90.9838817 299.262673,84.837685 302.648501,84.7985523 C306.034328,84.7594196 309.39543,77.8049067 308.166377,76.0314905 C300.886711,65.5275707 301.892625,58.5718393 300.518102,51.4218129 C299.143578,44.2717864 300.518102,50.4494887 300.518102,39.7045223 Z" transform="translate(-285 -1)"/>
</svg>
